<svg xmlns="http://www.w3.org/2000/svg">
    <defs>
        <symbol id="binary" fill="none" stroke="currentColor" stroke-width="2" stroke-linecap="round" stroke-linejoin="round" viewBox="0 0 24 24"><rect x="14" y="14" width="4" height="6" rx="2"/><rect x="6" y="4" width="4" height="6" rx="2"/><path d="M6 20h4"/><path d="M14 10h4"/><path d="M6 14h2v6"/><path d="M14 4h2v6"/></symbol>
        <symbol id="boxes" fill="none" stroke="currentColor" stroke-width="2" stroke-linecap="round" stroke-linejoin="round" viewBox="0 0 24 24"><path d="M2.97 12.92A2 2 0 0 0 2 14.63v3.24a2 2 0 0 0 .97 1.71l3 1.8a2 2 0 0 0 2.06 0L12 19v-5.5l-5-3-4.03 2.42Z"/><path d="m7 16.5-4.74-2.85"/><path d="m7 16.5 5-3"/><path d="M7 16.5v5.17"/><path d="M12 13.5V19l3.97 2.38a2 2 0 0 0 2.06 0l3-1.8a2 2 0 0 0 .97-1.71v-3.24a2 2 0 0 0-.97-1.71L17 10.5l-5 3Z"/><path d="m17 16.5-5-3"/><path d="m17 16.5 4.74-2.85"/><path d="M17 16.5v5.17"/><path d="M7.97 4.42A2 2 0 0 0 7 6.13v4.37l5 3 5-3V6.13a2 2 0 0 0-.97-1.71l-3-1.8a2 2 0 0 0-2.06 0l-3 1.8Z"/><path d="M12 8 7.26 5.15"/><path d="m12 8 4.74-2.85"/><path d="M12 13.5V8"/></symbol>
        <symbol id="bug" fill="none" stroke="currentColor" stroke-width="2" stroke-linecap="round" stroke-linejoin="round" viewBox="0 0 24 24"><path d="M12 20v-9"/><path d="M14 7a4 4 0 0 1 4 4v3a6 6 0 0 1-12 0v-3a4 4 0 0 1 4-4z"/><path d="M14.12 3.88 16 2"/><path d="M21 21a4 4 0 0 0-3.81-4"/><path d="M21 5a4 4 0 0 1-3.55 3.97"/><path d="M22 13h-4"/><path d="M3 21a4 4 0 0 1 3.81-4"/><path d="M3 5a4 4 0 0 0 3.55 3.97"/><path d="M6 13H2"/><path d="m8 2 1.88 1.88"/><path d="M9 7.13V6a3 3 0 1 1 6 0v1.13"/></symbol>
        <symbol id="file-code" fill="none" stroke="currentColor" stroke-width="2" stroke-linecap="round" stroke-linejoin="round" viewBox="0 0 24 24"><path d="M6 22a2 2 0 0 1-2-2V4a2 2 0 0 1 2-2h8a2.4 2.4 0 0 1 1.704.706l3.588 3.588A2.4 2.4 0 0 1 20 8v12a2 2 0 0 1-2 2z"/><path d="M14 2v5a1 1 0 0 0 1 1h5"/><path d="M10 12.5 8 15l2 2.5"/><path d="m14 12.5 2 2.5-2 2.5"/></symbol>
        <symbol id="package" fill="none" stroke="currentColor" stroke-width="2" stroke-linecap="round" stroke-linejoin="round" viewBox="0 0 24 24"><path d="M11 21.73a2 2 0 0 0 2 0l7-4A2 2 0 0 0 21 16V8a2 2 0 0 0-1-1.73l-7-4a2 2 0 0 0-2 0l-7 4A2 2 0 0 0 3 8v8a2 2 0 0 0 1 1.73z"/><path d="M12 22V12"/><polyline points="3.29 7 12 12 20.71 7"/><path d="m7.5 4.27 9 5.15"/></symbol>
        <symbol id="package-check" fill="none" stroke="currentColor" stroke-width="2" stroke-linecap="round" stroke-linejoin="round" viewBox="0 0 24 24"><path d="M12 22V12"/><path d="m16 17 2 2 4-4"/><path d="M21 11.127V8a2 2 0 0 0-1-1.73l-7-4a2 2 0 0 0-2 0l-7 4A2 2 0 0 0 3 8v8a2 2 0 0 0 1 1.729l7 4a2 2 0 0 0 2 .001l1.32-.753"/><path d="M3.29 7 12 12l8.71-5"/><path d="m7.5 4.27 8.997 5.148"/></symbol>
        <symbol id="package-search" fill="none" stroke="currentColor" stroke-width="2" stroke-linecap="round" stroke-linejoin="round" viewBox="0 0 24 24"><path d="M12 22V12"/><path d="M20.27 18.27 22 20"/><path d="M21 10.498V8a2 2 0 0 0-1-1.73l-7-4a2 2 0 0 0-2 0l-7 4A2 2 0 0 0 3 8v8a2 2 0 0 0 1 1.729l7 4a2 2 0 0 0 2 .001l.98-.559"/><path d="M3.29 7 12 12l8.71-5"/><path d="m7.5 4.27 8.997 5.148"/><circle cx="18.5" cy="16.5" r="2.5"/></symbol>
    </defs>
</svg>
